<svg xmlns="http://www.w3.org/2000/svg" viewBox="0 0 120 120" role="img" aria-label="m">
    <rect width="120" height="120" rx="22" fill="#f8f1e4"/>
    <path d="M16 24 L104 24" stroke="rgba(23, 20, 17, 0.12)" stroke-width="2" stroke-linecap="round"/>
    <path d="M18 92 L102 92" stroke="rgba(23, 20, 17, 0.12)" stroke-width="2" stroke-linecap="round"/>
    <path d="M60 18 L60 102" stroke="rgba(23, 20, 17, 0.06)" stroke-width="2" stroke-dasharray="4 8" stroke-linecap="round"/>
    <g transform="rotate(-8 60 60)" opacity="0.28">
        <path d="M26 18 L96 104" stroke="rgba(139, 90, 43, 0.12)" stroke-width="10" stroke-linecap="round"/>
    </g>
    <g>
        <path d="M28 92 C36 72 42 54 48 28" fill="none" stroke="#221712" stroke-width="8" stroke-linecap="round" stroke-linejoin="round"/><path d="M48 28 C56 42 62 56 68 72" fill="none" stroke="#221712" stroke-width="8" stroke-linecap="round" stroke-linejoin="round"/><path d="M68 72 C74 60 82 54 92 62" fill="none" stroke="#221712" stroke-width="8" stroke-linecap="round" stroke-linejoin="round"/>
    </g>
    <g transform="translate(64 70) scale(0.34)">
        <path d="M32 90 C42 58 52 42 74 70 C80 76 86 78 94 74" fill="none" stroke="#8b5a2b" stroke-width="5" stroke-linecap="round" stroke-linejoin="round"/>
    </g>
</svg>
