<svg xmlns="http://www.w3.org/2000/svg" viewBox="0 0 120 120" role="img" aria-label="z">
    <rect width="120" height="120" rx="22" fill="#f8f1e4"/>
    <path d="M16 24 L104 24" stroke="rgba(23, 20, 17, 0.12)" stroke-width="2" stroke-linecap="round"/>
    <path d="M18 92 L102 92" stroke="rgba(23, 20, 17, 0.12)" stroke-width="2" stroke-linecap="round"/>
    <path d="M60 18 L60 102" stroke="rgba(23, 20, 17, 0.06)" stroke-width="2" stroke-dasharray="4 8" stroke-linecap="round"/>
    <g transform="rotate(-4 60 60)" opacity="0.28">
        <path d="M26 18 L96 104" stroke="rgba(139, 90, 43, 0.12)" stroke-width="10" stroke-linecap="round"/>
    </g>
    <g>
        <path d="M34 34 C48 22 72 28 78 42" fill="none" stroke="#221712" stroke-width="8" stroke-linecap="round" stroke-linejoin="round"/><path d="M78 42 C84 56 60 58 48 64" fill="none" stroke="#221712" stroke-width="8" stroke-linecap="round" stroke-linejoin="round"/><path d="M48 64 C34 72 38 84 76 88" fill="none" stroke="#221712" stroke-width="8" stroke-linecap="round" stroke-linejoin="round"/><path d="M42 54 L66 50" fill="none" stroke="#221712" stroke-width="8" stroke-linecap="round" stroke-linejoin="round"/>
    </g>
    <g transform="translate(64 70) scale(0.34)">
        <path d="M36 36 C50 26 72 30 76 42" fill="none" stroke="#8b5a2b" stroke-width="5" stroke-linecap="round" stroke-linejoin="round"/><path d="M76 42 C80 54 58 58 48 64" fill="none" stroke="#8b5a2b" stroke-width="5" stroke-linecap="round" stroke-linejoin="round"/><path d="M48 64 C36 72 42 82 74 86" fill="none" stroke="#8b5a2b" stroke-width="5" stroke-linecap="round" stroke-linejoin="round"/><path d="M44 54 L64 50" fill="none" stroke="#8b5a2b" stroke-width="5" stroke-linecap="round" stroke-linejoin="round"/>
    </g>
</svg>
