<svg xmlns="http://www.w3.org/2000/svg" viewBox="0 0 120 120" role="img" aria-label="motion">
    <rect width="120" height="120" rx="22" fill="#fbf4e8"/>
    <path d="M16 24 L104 24" stroke="rgba(23, 20, 17, 0.12)" stroke-width="2" stroke-linecap="round"/>
    <path d="M18 92 L102 92" stroke="rgba(23, 20, 17, 0.12)" stroke-width="2" stroke-linecap="round"/>
    <path d="M60 18 L60 102" stroke="rgba(23, 20, 17, 0.06)" stroke-width="2" stroke-dasharray="4 8" stroke-linecap="round"/>
    <g transform="rotate(8 60 60)" opacity="0.28">
        <path d="M26 18 L96 104" stroke="rgba(139, 90, 43, 0.12)" stroke-width="10" stroke-linecap="round"/>
    </g>
    <g>
        <path d="M24 82 C40 70 58 56 76 34" fill="none" stroke="#191512" stroke-width="8" stroke-linecap="round" stroke-linejoin="round"/><path d="M42 90 C54 76 66 64 92 58" fill="none" stroke="#191512" stroke-width="8" stroke-linecap="round" stroke-linejoin="round"/><path d="M74 34 L92 38 L82 52" fill="none" stroke="#191512" stroke-width="8" stroke-linecap="round" stroke-linejoin="round"/>
    </g>
    <g transform="translate(64 70) scale(0.34)">
        <path d="M26 84 C48 70 68 50 88 38" fill="none" stroke="#8b5a2b" stroke-width="5" stroke-linecap="round" stroke-linejoin="round"/><path d="M46 88 C64 74 78 68 94 64" fill="none" stroke="#8b5a2b" stroke-width="5" stroke-linecap="round" stroke-linejoin="round"/>
    </g>
</svg>
