<svg xmlns="http://www.w3.org/2000/svg" viewBox="0 0 120 120" role="img" aria-label="time">
    <rect width="120" height="120" rx="22" fill="#fbf4e8"/>
    <path d="M16 24 L104 24" stroke="rgba(23, 20, 17, 0.12)" stroke-width="2" stroke-linecap="round"/>
    <path d="M18 92 L102 92" stroke="rgba(23, 20, 17, 0.12)" stroke-width="2" stroke-linecap="round"/>
    <path d="M60 18 L60 102" stroke="rgba(23, 20, 17, 0.06)" stroke-width="2" stroke-dasharray="4 8" stroke-linecap="round"/>
    <g transform="rotate(0 60 60)" opacity="0.28">
        <path d="M26 18 L96 104" stroke="rgba(139, 90, 43, 0.12)" stroke-width="10" stroke-linecap="round"/>
    </g>
    <g>
        <path d="M34 88 C22 70 24 42 42 28 C58 16 80 18 92 36 C100 50 100 72 86 88" fill="none" stroke="#191512" stroke-width="8" stroke-linecap="round" stroke-linejoin="round"/><path d="M52 86 C40 74 38 48 52 32 C62 22 76 24 84 36" fill="none" stroke="#191512" stroke-width="8" stroke-linecap="round" stroke-linejoin="round"/><path d="M54 66 L80 40" fill="none" stroke="#191512" stroke-width="8" stroke-linecap="round" stroke-linejoin="round"/>
    </g>
    <g transform="translate(64 70) scale(0.34)">
        <path d="M36 84 C24 66 28 38 50 28 C68 22 82 32 88 48" fill="none" stroke="#8b5a2b" stroke-width="5" stroke-linecap="round" stroke-linejoin="round"/><path d="M54 74 L80 42" fill="none" stroke="#8b5a2b" stroke-width="5" stroke-linecap="round" stroke-linejoin="round"/>
    </g>
</svg>
