<svg xmlns="http://www.w3.org/2000/svg" viewBox="0 0 120 120" role="img" aria-label="o">
    <rect width="120" height="120" rx="22" fill="#f8f1e4"/>
    <path d="M16 24 L104 24" stroke="rgba(31, 70, 255, 0.14)" stroke-width="2" stroke-linecap="round"/>
    <path d="M18 92 L102 92" stroke="rgba(31, 70, 255, 0.14)" stroke-width="2" stroke-linecap="round"/>
    <path d="M60 18 L60 102" stroke="rgba(23, 20, 17, 0.06)" stroke-width="2" stroke-dasharray="4 8" stroke-linecap="round"/>
    <g transform="rotate(-4 60 60)" opacity="0.28">
        <path d="M26 18 L96 104" stroke="rgba(139, 90, 43, 0.12)" stroke-width="10" stroke-linecap="round"/>
    </g>
    <g>
        <path d="M44 50 C52 38 70 38 78 50 C84 60 78 74 64 76 C50 76 42 64 44 50" fill="none" stroke="#221712" stroke-width="7" stroke-linecap="round" stroke-linejoin="round"/>
    </g>
    <g transform="translate(64 70) scale(0.34)">
        <path d="M46 52 C54 42 68 42 74 52 C78 62 72 72 62 72 C52 72 44 62 46 52" fill="none" stroke="#1f46ff" stroke-width="5" stroke-linecap="round" stroke-linejoin="round"/>
    </g>
</svg>
